<svg xmlns:xlink="http://www.w3.org/1999/xlink" xmlns="http://www.w3.org/2000/svg" fill="none" viewBox="0 0 16 16" role="presentation" class="_1reo15vq _18m915vq _syaz1r31 _lcxvglyw _s7n4yfq0 _vc881r31 _1bsbpxbi _4t3ipxbi" width="16"  height="16" ><path fill="#CECFD2" fill-rule="evenodd" d="M4.5 2.5v2H6v-2h4v2h1.5v-2H13a.5.5 0 0 1 .5.5v3h-11V3a.5.5 0 0 1 .5-.5zm-2 5V13a.5.5 0 0 0 .5.5h10a.5.5 0 0 0 .5-.5V7.5zm9-6.5H13a2 2 0 0 1 2 2v10a2 2 0 0 1-2 2H3a2 2 0 0 1-2-2V3a2 2 0 0 1 2-2h1.5V0H6v1h4V0h1.5z" clip-rule="evenodd"></path></svg>